<svg xmlns="http://www.w3.org/2000/svg" version="1.1" xlink="http://www.w3.org/1999/xlink" xmlns:svgjs="http://svgjs.com/svgjs" width="100%" height="100%" preserveAspectRatio="xMidYMid meet" viewBox="4.613914248086841e-15 4.613914248086841e-15 300.0011291503906 80.59410095214844" overflow="visible"><defs id="SvgjsDefs46607"></defs><g id="SvgjsG46608" transform="scale(0.6493506493506493)" opacity="1"><g id="SvgjsG46609" class="plngQP3jm" transform="translate(7.105427357601002e-15, 7.105427357601002e-15) scale(1.2411490186439516)" light-content="false" non-strokable="false" fill="#dc8c07"><path d="M24 0h76v76c0 13.255-10.745 24-24 24H0V24C0 10.745 10.745 0 24 0z"></path></g><g id="SvgjsG46610" class="NCUZW5YWNw" transform="translate(22.34168966180201, 24.863429195541386) scale(0.15760208707333892)" light-content="true" non-strokable="false" fill="#ffffff"><path d="M503.873 402.554l-14.758-57.052c-2.357-9.111-8.688-16.329-16.802-19.942 2.419-1.808 3.685-5.476 3.974-10.719 0-8.812-7.168-15.979-15.979-15.979h-3.816v-80.583a4 4 0 0 0-4-4H121.023a15.87 15.87 0 0 0 1.014-.932c3.042-3.09 4.541-7.271 4.401-11.421a31.52 31.52 0 0 0 4.797-9.066L421.429 62.95a4 4 0 0 0 2.036-5.239L399.546 2.412A3.998 3.998 0 0 0 394.24.349l-7.243 3.242-.006.003-292.99 131.161c-18.64-8.7-41.219-5.803-57.133 8.958a158.89 158.89 0 0 0-9.962 10.11C16.085 165.84 7.155 179.45.364 194.274a4 4 0 0 0 7.274 3.332c6.452-14.086 14.936-27.016 25.214-38.429a150.525 150.525 0 0 1 9.458-9.599c17.407-16.147 44.268-15.507 61.146 1.459l14.532 14.606c7.092 7.128 8.789 17.883 4.871 26.719a159.043 159.043 0 0 0-7.342-10.25 158.242 158.242 0 0 0-26.725-26.859 4 4 0 1 0-4.955 6.281 150.25 150.25 0 0 1 25.371 25.499 150.768 150.768 0 0 1 8.117 11.478c1.845 2.887 1.428 6.766-.99 9.223a7.212 7.212 0 0 1-5.798 2.14 7.228 7.228 0 0 1-5.335-3.16l-5.856-8.121a182.252 182.252 0 0 0-33.29-33.459 4 4 0 1 0-4.896 6.327 174.247 174.247 0 0 1 31.829 31.989 172.93 172.93 0 0 1 3.245 4.403c1.389 2.802.847 6.278-1.369 8.527a7.209 7.209 0 0 1-5.796 2.14 7.227 7.227 0 0 1-5.336-3.159l-5.855-8.122a182.042 182.042 0 0 0-25.945-27.469 4 4 0 0 0-5.215 6.067 173.954 173.954 0 0 1 24.803 26.257c.901 1.18 1.788 2.38 2.662 3.588a7.426 7.426 0 0 1-2.041 4.038c-1.529 1.555-3.635 2.342-5.796 2.139a7.227 7.227 0 0 1-5.336-3.159l-.008-.011-.01-.015a182.968 182.968 0 0 0-5.837-8.096 181.926 181.926 0 0 0-12.281-14.438 4 4 0 1 0-5.814 5.495 173.617 173.617 0 0 1 11.738 13.799 174.643 174.643 0 0 1 4.397 6.049L.279 355.931a3.999 3.999 0 0 0 2.257 5.187c1.97.317 3.724-.324 5.187-2.257l51.581-131.059a15.1 15.1 0 0 0 1.192.618V468a4 4 0 0 0 4 4h387.995a4 4 0 0 0 4-4v-64.472h3.816c8.812 0 15.979-7.169 15.979-15.98-.066-5.516-2.103-9.392-5.44-12.186 3.327-2.93 5.44-7.208 5.44-11.98.125-5.423-1.268-9.816-5.44-12.187 3.569-2.104 5.919-6.28 5.391-13.155a22.181 22.181 0 0 1 5.132 9.466l14.759 57.052c.97 2.168 2.525 3.253 4.874 2.87a3.998 3.998 0 0 0 2.871-4.874zM381.44 14.844l-26.396 69.058-58.52 26.197 26.395-69.058 58.521-26.197zM240.112 78.112l-26.396 69.058-58.52 26.197 26.396-69.058 58.52-26.197zm194.92 144.167l-51.523 52.416h-64.007l51.523-52.416h64.007zm-154.406 0l-51.523 52.416h-64.007l51.523-52.416h64.007zm-212.13 7.537a15.192 15.192 0 0 0 9.347-4.482 15.506 15.506 0 0 0 1.977-2.477c2.718 2.503 6.046 3.678 9.908 3.692 3.919 0 7.671-1.524 10.528-4.271h25.964l-51.523 52.416h-6.201v-44.878zm0 52.879h379.995v16.167H68.496v-16.167zm257.263 24.167v72.555h-134.53v-72.555h134.53zM448.491 464H68.496v-20.194h379.995V464zm0-56.389H68.496v-20.194l360.199.131c0 8.812 7.169 15.98 15.98 15.98h3.815v4.083zm11.817-12.083h-15.632c-4.4 0-7.98-3.58-7.98-7.98.24-5.151 2.794-7.986 7.98-8.187h15.632c4.117.08 7.02 2.367 7.979 8.187 0 4.4-3.58 7.98-7.979 7.98zm0-24.167h-23.55c-4.4 0-7.98-3.58-7.98-7.979v-.207c0-4.399 3.58-7.979 7.98-7.979h23.55c4.469.25 7.659 2.252 7.979 8.187 0 4.398-3.579 7.978-7.979 7.978zm0-24.166H424.88c-4.176-1.342-7.197-3.74-7.979-8.187 0-4.4 3.579-7.98 7.979-7.98h35.428c4.4 0 7.979 3.58 7.979 7.98-.841 5.175-3.666 7.683-7.979 8.187zm0-24.167h-19.591c-4.4 0-7.98-3.58-7.98-7.979.309-4.786 2.98-7.505 7.98-8.187h19.591c4.399 0 7.979 3.58 7.979 7.979-.313 5.17-2.989 7.882-7.979 8.187z"></path></g><g id="SvgjsG46611" class="text" transform="translate(310.42167009835725, 58.31121159495038) scale(1)" light-content="false" fill="#e38e00"><path d="M-128.94 -6.57L-126.92 0L-115.96 0L-130.52 -39.7L-133.25 -39.7L-140.18 -39.7L-154.66 0L-143.72 0L-141.7 -6.57ZM-131.48 -14.81L-139.2 -14.81L-135.35 -27.35Z M-83.13 -6.2C-81.73 -8.36 -80.98 -10.85 -80.89 -13.69L-91.01 -13.69C-91.03 -11.65 -91.59 -10.17 -92.7 -9.24C-93.81 -8.32 -95.41 -7.85 -97.5 -7.85C-99.19 -7.85 -100.51 -8.19 -101.45 -8.85C-102.4 -9.51 -103.09 -10.64 -103.51 -12.24C-103.94 -13.84 -104.15 -16.1 -104.15 -19.01L-104.15 -20.72C-104.15 -23.52 -103.92 -25.74 -103.46 -27.36C-103 -28.99 -102.3 -30.16 -101.37 -30.86C-100.45 -31.55 -99.23 -31.9 -97.72 -31.9C-95.3 -31.9 -93.57 -31.41 -92.54 -30.42C-91.5 -29.43 -90.97 -27.86 -90.96 -25.71L-80.81 -25.71C-81.05 -28.57 -81.84 -31.09 -83.2 -33.28C-84.55 -35.47 -86.46 -37.19 -88.91 -38.42C-91.37 -39.66 -94.3 -40.28 -97.72 -40.28C-101.06 -40.28 -104 -39.49 -106.54 -37.9C-109.08 -36.32 -111.04 -34.05 -112.43 -31.1C-113.82 -28.15 -114.52 -24.67 -114.52 -20.67L-114.52 -19.01C-114.52 -14.97 -113.85 -11.48 -112.51 -8.55C-111.18 -5.61 -109.23 -3.36 -106.68 -1.8C-104.12 -0.24 -101.06 0.55 -97.5 0.55C-94.26 0.55 -91.41 -0.04 -88.94 -1.21C-86.47 -2.39 -84.53 -4.05 -83.13 -6.2Z M-46.02 -31.47L-46.02 -39.7L-57.85 -39.7L-79.59 -39.7L-79.59 -31.47L-68.05 -31.47L-68.05 0L-57.85 0L-57.85 -31.47Z M-11.96 -8.69C-10.47 -11.66 -9.72 -15.13 -9.72 -19.12L-9.72 -20.56C-9.72 -24.54 -10.47 -28.02 -11.97 -30.99C-13.47 -33.96 -15.55 -36.25 -18.22 -37.85C-20.88 -39.45 -23.91 -40.25 -27.31 -40.25C-30.75 -40.25 -33.79 -39.45 -36.45 -37.85C-39.1 -36.25 -41.17 -33.96 -42.65 -30.99C-44.13 -28.02 -44.87 -24.54 -44.87 -20.56L-44.87 -19.12C-44.87 -15.13 -44.13 -11.66 -42.65 -8.69C-41.17 -5.71 -39.09 -3.43 -36.43 -1.84C-33.77 -0.25 -30.71 0.55 -27.26 0.55C-23.86 0.55 -20.83 -0.25 -18.17 -1.84C-15.52 -3.43 -13.45 -5.71 -11.96 -8.69ZM-21.98 -29.03C-20.73 -27.09 -20.11 -24.29 -20.11 -20.62L-20.11 -19.12C-20.11 -15.5 -20.73 -12.7 -21.97 -10.72C-23.2 -8.74 -24.96 -7.74 -27.26 -7.74C-29.66 -7.74 -31.46 -8.72 -32.67 -10.68C-33.88 -12.63 -34.48 -15.44 -34.48 -19.12L-34.48 -20.62C-34.48 -28.16 -32.09 -31.93 -27.31 -31.93C-25 -31.93 -23.22 -30.96 -21.98 -29.03Z M24.34 -2.3C25.81 -3.11 26.95 -3.94 27.75 -4.8L27.75 -21.6L11.25 -21.6L11.25 -14.4L17.55 -14.4L17.55 -9C17.11 -8.64 16.46 -8.32 15.6 -8.06C14.73 -7.79 13.69 -7.66 12.48 -7.66C9.64 -7.66 7.59 -8.57 6.33 -10.38C5.06 -12.18 4.43 -15 4.43 -18.82L4.43 -20.92C4.43 -24.64 5.07 -27.43 6.35 -29.29C7.64 -31.14 9.37 -32.07 11.55 -32.07C13.6 -32.07 15.12 -31.61 16.09 -30.71C17.06 -29.8 17.68 -28.35 17.96 -26.37L27.69 -26.37C27.29 -30.73 25.78 -34.14 23.15 -36.6C20.52 -39.05 16.53 -40.28 11.17 -40.28C7.88 -40.28 4.94 -39.52 2.36 -38C-0.22 -36.48 -2.25 -34.26 -3.71 -31.33C-5.17 -28.41 -5.9 -24.91 -5.9 -20.86L-5.9 -18.82C-5.9 -14.73 -5.19 -11.23 -3.75 -8.32C-2.31 -5.41 -0.28 -3.2 2.36 -1.7C4.99 -0.2 8.1 0.55 11.68 0.55C14.34 0.55 16.74 0.27 18.9 -0.27C21.05 -0.82 22.87 -1.5 24.34 -2.3Z M65.35 -0.44L57.25 -16.2C59.49 -17.31 61.18 -18.74 62.34 -20.49C63.49 -22.25 64.07 -24.65 64.07 -27.71C64.07 -30.27 63.45 -32.45 62.2 -34.25C60.96 -36.05 59.2 -37.41 56.92 -38.33C54.65 -39.24 51.97 -39.7 48.88 -39.7L32.87 -39.7L32.87 0L43.04 0L43.04 -13.42L47.76 -13.42L54.44 0L65.35 0ZM43.04 -21.68L43.04 -31.47L48.88 -31.47C50.48 -31.47 51.72 -31.04 52.59 -30.19C53.46 -29.33 53.9 -28.12 53.9 -26.56C53.9 -24.96 53.47 -23.75 52.63 -22.92C51.78 -22.09 50.53 -21.68 48.88 -21.68Z M92.73 -6.57L94.75 0L105.71 0L91.15 -39.7L88.42 -39.7L81.49 -39.7L67.01 0L77.95 0L79.97 -6.57ZM90.19 -14.81L82.48 -14.81L86.32 -27.35Z M151.58 0L151.58 -39.7L138.16 -39.7L129.9 -13.36L121.63 -39.7L116.83 -39.7L108.24 -39.7L108.24 0L118.44 0L118.44 -7.5L117.43 -27.68L126.57 0L133.22 0L142.36 -27.68L141.38 -7.5L141.38 0Z"></path></g><g id="SvgjsG46612" class="text" transform="translate(251.67167014604092, 100.27286339132476) scale(1)" light-content="false" fill="#9f724b"><path d="M-82.99 -0.23C-83.37 -1.02 -83.55 -2.09 -83.55 -3.44L-83.55 -9.94C-83.55 -11.04 -83.8 -11.97 -84.28 -12.73C-84.77 -13.5 -85.44 -14.07 -86.31 -14.45C-87.17 -14.83 -88.17 -15.03 -89.29 -15.03C-90.49 -15.03 -91.56 -14.81 -92.49 -14.39C-93.42 -13.97 -94.14 -13.41 -94.64 -12.71C-95.15 -12.02 -95.4 -11.28 -95.4 -10.48L-92.01 -10.48C-92.01 -10.86 -91.9 -11.19 -91.69 -11.49C-91.48 -11.79 -91.19 -12.03 -90.81 -12.2C-90.42 -12.38 -89.98 -12.46 -89.48 -12.46C-88.65 -12.46 -88.02 -12.24 -87.59 -11.8C-87.16 -11.36 -86.95 -10.75 -86.95 -9.97L-86.95 -9.01L-88.99 -9.01C-91.14 -9.01 -92.79 -8.59 -93.96 -7.76C-95.13 -6.92 -95.71 -5.72 -95.71 -4.14C-95.71 -3.31 -95.5 -2.55 -95.07 -1.88C-94.65 -1.21 -94.05 -0.68 -93.29 -0.3C-92.52 0.08 -91.66 0.27 -90.7 0.27C-89.88 0.27 -89.15 0.12 -88.5 -0.18C-87.86 -0.48 -87.3 -0.88 -86.84 -1.38C-86.73 -0.78 -86.6 -0.32 -86.46 0L-82.99 0ZM-88.15 -2.95C-88.7 -2.61 -89.33 -2.44 -90.04 -2.44C-90.76 -2.44 -91.32 -2.63 -91.72 -3.01C-92.12 -3.38 -92.32 -3.87 -92.32 -4.47C-92.32 -5.24 -92.02 -5.84 -91.41 -6.27C-90.8 -6.7 -89.9 -6.91 -88.72 -6.91L-86.95 -6.91L-86.95 -4.16C-87.2 -3.69 -87.6 -3.28 -88.15 -2.95Z M-68 -4.91L-71.2 -4.91C-71.23 -4.44 -71.37 -4.01 -71.62 -3.64C-71.88 -3.27 -72.22 -2.98 -72.65 -2.77C-73.07 -2.56 -73.54 -2.45 -74.06 -2.45C-76.26 -2.45 -77.36 -4.02 -77.36 -7.14L-77.36 -7.61C-77.36 -8.97 -77.12 -10.09 -76.63 -10.98C-76.14 -11.86 -75.29 -12.3 -74.08 -12.3C-73.5 -12.3 -73.01 -12.17 -72.58 -11.92C-72.16 -11.66 -71.83 -11.32 -71.6 -10.89C-71.36 -10.46 -71.23 -9.98 -71.2 -9.45L-68 -9.45C-68.02 -10.54 -68.29 -11.51 -68.8 -12.35C-69.31 -13.2 -70.02 -13.86 -70.92 -14.32C-71.82 -14.79 -72.86 -15.03 -74.04 -15.03C-75.49 -15.03 -76.72 -14.7 -77.73 -14.04C-78.74 -13.39 -79.5 -12.5 -80 -11.38C-80.51 -10.26 -80.76 -9 -80.76 -7.61L-80.76 -7.14C-80.76 -5.75 -80.51 -4.5 -80.01 -3.37C-79.51 -2.25 -78.75 -1.36 -77.74 -0.71C-76.72 -0.05 -75.49 0.27 -74.02 0.27C-72.94 0.27 -71.95 0.04 -71.04 -0.42C-70.13 -0.89 -69.4 -1.51 -68.85 -2.3C-68.31 -3.1 -68.02 -3.96 -68 -4.91Z M-58.62 -2.67C-59.02 -2.58 -59.41 -2.54 -59.77 -2.54C-60.28 -2.54 -60.66 -2.65 -60.92 -2.87C-61.17 -3.09 -61.3 -3.51 -61.3 -4.13L-61.3 -12.24L-58.71 -12.24L-58.71 -14.75L-61.3 -14.75L-61.3 -18.35L-64.7 -18.35L-64.7 -14.75L-67.1 -14.75L-67.1 -12.24L-64.7 -12.24L-64.7 -3.9C-64.7 -2.45 -64.35 -1.39 -63.66 -0.72C-62.97 -0.06 -62.02 0.27 -60.82 0.27C-60.01 0.27 -59.27 0.16 -58.62 -0.05Z M-56.36 -11.37C-56.91 -10.24 -57.18 -8.95 -57.18 -7.51L-57.18 -7.23C-57.18 -5.79 -56.91 -4.5 -56.36 -3.37C-55.81 -2.23 -55.01 -1.34 -53.97 -0.7C-52.93 -0.05 -51.71 0.27 -50.3 0.27C-48.89 0.27 -47.67 -0.05 -46.63 -0.7C-45.59 -1.34 -44.8 -2.23 -44.25 -3.37C-43.7 -4.5 -43.43 -5.79 -43.43 -7.23L-43.43 -7.51C-43.43 -8.95 -43.7 -10.24 -44.25 -11.37C-44.8 -12.51 -45.6 -13.4 -46.64 -14.05C-47.68 -14.7 -48.91 -15.03 -50.33 -15.03C-51.73 -15.03 -52.94 -14.7 -53.98 -14.05C-55.02 -13.4 -55.81 -12.51 -56.36 -11.37ZM-52.92 -3.79C-53.5 -4.68 -53.79 -5.83 -53.79 -7.23L-53.79 -7.51C-53.79 -8.4 -53.66 -9.21 -53.41 -9.93C-53.16 -10.66 -52.78 -11.23 -52.26 -11.66C-51.74 -12.08 -51.1 -12.3 -50.33 -12.3C-49.54 -12.3 -48.89 -12.08 -48.36 -11.66C-47.83 -11.23 -47.45 -10.66 -47.2 -9.93C-46.95 -9.21 -46.82 -8.4 -46.82 -7.51L-46.82 -7.23C-46.82 -6.33 -46.95 -5.52 -47.2 -4.8C-47.45 -4.08 -47.83 -3.51 -48.36 -3.09C-48.88 -2.67 -49.53 -2.45 -50.3 -2.45C-51.46 -2.45 -52.33 -2.9 -52.92 -3.79Z M-33.4 -14.97C-33.64 -15.01 -33.85 -15.03 -34.05 -15.03C-34.77 -15.03 -35.41 -14.86 -35.97 -14.52C-36.52 -14.18 -36.99 -13.71 -37.36 -13.09L-37.45 -14.75L-40.69 -14.75L-40.69 0L-37.29 0L-37.29 -10.05C-36.77 -11.18 -35.75 -11.75 -34.24 -11.75C-33.79 -11.75 -33.34 -11.72 -32.89 -11.64L-32.86 -14.85C-32.98 -14.89 -33.16 -14.93 -33.4 -14.97Z M-29.63 -7.73C-28.71 -7.04 -27.41 -6.52 -25.71 -6.16C-24.87 -5.99 -24.22 -5.8 -23.76 -5.59C-23.3 -5.38 -22.99 -5.15 -22.82 -4.91C-22.66 -4.66 -22.58 -4.37 -22.58 -4.02C-22.58 -3.49 -22.81 -3.06 -23.27 -2.73C-23.73 -2.41 -24.37 -2.25 -25.2 -2.25C-26.01 -2.25 -26.71 -2.45 -27.29 -2.84C-27.87 -3.23 -28.17 -3.84 -28.21 -4.66L-31.5 -4.66C-31.5 -3.83 -31.25 -3.03 -30.76 -2.28C-30.27 -1.52 -29.55 -0.91 -28.61 -0.44C-27.66 0.04 -26.54 0.27 -25.25 0.27C-24.06 0.27 -23.01 0.08 -22.1 -0.29C-21.19 -0.67 -20.49 -1.2 -20 -1.88C-19.5 -2.56 -19.25 -3.34 -19.25 -4.2C-19.25 -5.07 -19.47 -5.8 -19.89 -6.38C-20.32 -6.96 -20.93 -7.44 -21.72 -7.8C-22.51 -8.16 -23.51 -8.47 -24.71 -8.73C-25.48 -8.89 -26.08 -9.06 -26.52 -9.24C-26.96 -9.43 -27.26 -9.63 -27.44 -9.86C-27.62 -10.09 -27.71 -10.36 -27.71 -10.69C-27.71 -11.21 -27.5 -11.64 -27.08 -11.98C-26.66 -12.33 -26.06 -12.5 -25.29 -12.5C-24.75 -12.5 -24.28 -12.4 -23.9 -12.2C-23.52 -12 -23.23 -11.74 -23.04 -11.41C-22.84 -11.07 -22.74 -10.71 -22.74 -10.32L-19.35 -10.32C-19.35 -11.21 -19.59 -12.01 -20.07 -12.73C-20.55 -13.44 -21.24 -14 -22.14 -14.41C-23.03 -14.82 -24.08 -15.03 -25.29 -15.03C-26.43 -15.03 -27.43 -14.82 -28.3 -14.42C-29.17 -14.01 -29.83 -13.47 -30.3 -12.78C-30.77 -12.1 -31.01 -11.35 -31.01 -10.54C-31.01 -9.36 -30.55 -8.42 -29.63 -7.73Z M-9.24 -11.37C-9.79 -10.24 -10.06 -8.95 -10.06 -7.51L-10.06 -7.23C-10.06 -5.79 -9.79 -4.5 -9.24 -3.37C-8.69 -2.23 -7.89 -1.34 -6.85 -0.7C-5.81 -0.05 -4.59 0.27 -3.18 0.27C-1.77 0.27 -0.55 -0.05 0.49 -0.7C1.53 -1.34 2.32 -2.23 2.87 -3.37C3.42 -4.5 3.69 -5.79 3.69 -7.23L3.69 -7.51C3.69 -8.95 3.42 -10.24 2.87 -11.37C2.32 -12.51 1.52 -13.4 0.48 -14.05C-0.56 -14.7 -1.79 -15.03 -3.2 -15.03C-4.6 -15.03 -5.82 -14.7 -6.86 -14.05C-7.89 -13.4 -8.69 -12.51 -9.24 -11.37ZM-5.79 -3.79C-6.38 -4.68 -6.67 -5.83 -6.67 -7.23L-6.67 -7.51C-6.67 -8.4 -6.54 -9.21 -6.29 -9.93C-6.04 -10.66 -5.66 -11.23 -5.14 -11.66C-4.62 -12.08 -3.98 -12.3 -3.2 -12.3C-2.42 -12.3 -1.77 -12.08 -1.24 -11.66C-0.71 -11.23 -0.32 -10.66 -0.07 -9.93C0.17 -9.21 0.3 -8.4 0.3 -7.51L0.3 -7.23C0.3 -6.33 0.17 -5.52 -0.07 -4.8C-0.32 -4.08 -0.71 -3.51 -1.23 -3.09C-1.76 -2.67 -2.4 -2.45 -3.18 -2.45C-4.34 -2.45 -5.21 -2.9 -5.79 -3.79Z M17.45 -13.72C16.63 -14.59 15.48 -15.03 13.98 -15.03C13.1 -15.03 12.3 -14.85 11.58 -14.51C10.85 -14.17 10.22 -13.68 9.69 -13.05L9.59 -14.75L6.39 -14.75L6.39 0L9.79 0L9.79 -10.5C10.09 -11.05 10.49 -11.48 10.99 -11.79C11.49 -12.1 12.06 -12.26 12.69 -12.26C13.57 -12.26 14.21 -12.05 14.64 -11.64C15.06 -11.22 15.27 -10.53 15.27 -9.54L15.27 0L18.67 0L18.67 -9.52C18.67 -11.45 18.26 -12.86 17.45 -13.72Z M30.12 -7.73C31.04 -7.04 32.34 -6.52 34.03 -6.16C34.88 -5.99 35.53 -5.8 35.99 -5.59C36.45 -5.38 36.76 -5.15 36.92 -4.91C37.09 -4.66 37.17 -4.37 37.17 -4.02C37.17 -3.49 36.94 -3.06 36.48 -2.73C36.02 -2.41 35.38 -2.25 34.55 -2.25C33.73 -2.25 33.03 -2.45 32.46 -2.84C31.88 -3.23 31.57 -3.84 31.54 -4.66L28.25 -4.66C28.25 -3.83 28.5 -3.03 28.99 -2.28C29.48 -1.52 30.2 -0.91 31.14 -0.44C32.09 0.04 33.2 0.27 34.5 0.27C35.69 0.27 36.74 0.08 37.65 -0.29C38.55 -0.67 39.26 -1.2 39.75 -1.88C40.25 -2.56 40.49 -3.34 40.49 -4.2C40.49 -5.07 40.28 -5.8 39.85 -6.38C39.43 -6.96 38.82 -7.44 38.03 -7.8C37.24 -8.16 36.24 -8.47 35.04 -8.73C34.27 -8.89 33.66 -9.06 33.23 -9.24C32.79 -9.43 32.48 -9.63 32.31 -9.86C32.13 -10.09 32.04 -10.36 32.04 -10.69C32.04 -11.21 32.25 -11.64 32.67 -11.98C33.09 -12.33 33.68 -12.5 34.45 -12.5C35 -12.5 35.46 -12.4 35.85 -12.2C36.23 -12 36.52 -11.74 36.71 -11.41C36.91 -11.07 37 -10.71 37 -10.32L40.4 -10.32C40.4 -11.21 40.16 -12.01 39.68 -12.73C39.19 -13.44 38.51 -14 37.61 -14.41C36.72 -14.82 35.66 -15.03 34.45 -15.03C33.32 -15.03 32.32 -14.82 31.45 -14.42C30.58 -14.01 29.91 -13.47 29.44 -12.78C28.98 -12.1 28.74 -11.35 28.74 -10.54C28.74 -9.36 29.2 -8.42 30.12 -7.73Z M50.26 -2.67C49.85 -2.58 49.46 -2.54 49.1 -2.54C48.59 -2.54 48.21 -2.65 47.95 -2.87C47.7 -3.09 47.57 -3.51 47.57 -4.13L47.57 -12.24L50.16 -12.24L50.16 -14.75L47.57 -14.75L47.57 -18.35L44.18 -18.35L44.18 -14.75L41.78 -14.75L41.78 -12.24L44.18 -12.24L44.18 -3.9C44.18 -2.45 44.52 -1.39 45.21 -0.72C45.9 -0.06 46.85 0.27 48.05 0.27C48.87 0.27 49.6 0.16 50.26 -0.05Z M64.9 -0.23C64.53 -1.02 64.34 -2.09 64.34 -3.44L64.34 -9.94C64.34 -11.04 64.1 -11.97 63.61 -12.73C63.13 -13.5 62.45 -14.07 61.59 -14.45C60.72 -14.83 59.73 -15.03 58.6 -15.03C57.4 -15.03 56.34 -14.81 55.4 -14.39C54.47 -13.97 53.75 -13.41 53.25 -12.71C52.75 -12.02 52.49 -11.28 52.49 -10.48L55.89 -10.48C55.89 -10.86 55.99 -11.19 56.2 -11.49C56.41 -11.79 56.71 -12.03 57.09 -12.2C57.47 -12.38 57.91 -12.46 58.41 -12.46C59.25 -12.46 59.88 -12.24 60.31 -11.8C60.73 -11.36 60.95 -10.75 60.95 -9.97L60.95 -9.01L58.9 -9.01C56.76 -9.01 55.1 -8.59 53.93 -7.76C52.76 -6.92 52.18 -5.72 52.18 -4.14C52.18 -3.31 52.39 -2.55 52.82 -1.88C53.25 -1.21 53.84 -0.68 54.61 -0.3C55.37 0.08 56.23 0.27 57.2 0.27C58.02 0.27 58.75 0.12 59.39 -0.18C60.04 -0.48 60.59 -0.88 61.06 -1.38C61.16 -0.78 61.29 -0.32 61.44 0L64.9 0ZM59.74 -2.95C59.19 -2.61 58.56 -2.44 57.85 -2.44C57.13 -2.44 56.57 -2.63 56.17 -3.01C55.77 -3.38 55.57 -3.87 55.57 -4.47C55.57 -5.24 55.88 -5.84 56.49 -6.27C57.1 -6.7 57.99 -6.91 59.17 -6.91L60.95 -6.91L60.95 -4.16C60.69 -3.69 60.29 -3.28 59.74 -2.95Z M80.25 -14.75L77.17 -14.75L77.04 -13.29C76.1 -14.45 74.79 -15.03 73.09 -15.03C71.9 -15.03 70.85 -14.71 69.95 -14.08C69.06 -13.46 68.37 -12.58 67.89 -11.44C67.4 -10.3 67.16 -8.99 67.16 -7.5L67.16 -7.21C67.16 -5.79 67.41 -4.5 67.89 -3.37C68.38 -2.23 69.07 -1.34 69.96 -0.7C70.85 -0.05 71.89 0.27 73.07 0.27C74.64 0.27 75.9 -0.26 76.86 -1.34L76.86 -0.35C76.86 0.76 76.54 1.62 75.92 2.23C75.29 2.83 74.42 3.14 73.31 3.14C72.61 3.14 71.95 2.99 71.31 2.69C70.67 2.4 70.1 1.95 69.58 1.35L68 3.38C68.4 3.94 68.93 4.39 69.57 4.76C70.21 5.12 70.88 5.39 71.57 5.56C72.26 5.72 72.9 5.81 73.5 5.81C74.84 5.81 76.02 5.57 77.04 5.08C78.05 4.59 78.84 3.88 79.41 2.95C79.97 2.01 80.25 0.89 80.25 -0.42ZM76.86 -4.19C76.25 -3.07 75.27 -2.51 73.93 -2.51C72.81 -2.51 71.97 -2.95 71.4 -3.82C70.84 -4.69 70.56 -5.82 70.56 -7.21L70.56 -7.5C70.56 -8.4 70.68 -9.21 70.93 -9.93C71.17 -10.64 71.55 -11.21 72.06 -11.63C72.57 -12.05 73.2 -12.26 73.95 -12.26C75.28 -12.26 76.25 -11.71 76.86 -10.61Z M96.07 -6.31L96.07 -7.74C96.07 -9.19 95.84 -10.46 95.37 -11.56C94.9 -12.65 94.19 -13.5 93.25 -14.11C92.3 -14.72 91.13 -15.03 89.74 -15.03C88.47 -15.03 87.32 -14.71 86.31 -14.08C85.29 -13.46 84.49 -12.57 83.91 -11.42C83.33 -10.27 83.03 -8.94 83.03 -7.42L83.03 -6.86C83.03 -5.51 83.32 -4.3 83.89 -3.22C84.47 -2.14 85.29 -1.28 86.36 -0.66C87.43 -0.04 88.69 0.27 90.12 0.27C91.48 0.27 92.63 0.01 93.59 -0.52C94.54 -1.05 95.29 -1.7 95.82 -2.5L94.01 -4.25C93.08 -3.05 91.86 -2.45 90.33 -2.45C89.58 -2.45 88.93 -2.62 88.37 -2.95C87.81 -3.27 87.37 -3.73 87.04 -4.31C86.72 -4.89 86.52 -5.56 86.46 -6.31ZM92.72 -9.03L92.72 -8.77L86.53 -8.77C86.68 -9.89 87.03 -10.75 87.57 -11.37C88.12 -11.99 88.84 -12.3 89.73 -12.3C90.73 -12.3 91.47 -11.99 91.94 -11.38C92.41 -10.76 92.67 -9.98 92.72 -9.03Z"></path></g></g></svg>